<svg width="204" height="36" viewBox="0 0 204 36" fill="none" xmlns="http://www.w3.org/2000/svg">
<path d="M14.9863 35.432C12.3623 35.432 9.96225 34.904 7.78625 33.848C5.64225 32.792 3.94625 31.368 2.69825 29.576C1.45025 27.784 0.82625 25.816 0.82625 23.672V12.68C0.82625 10.536 1.43425 8.568 2.65025 6.776C3.89825 4.984 5.59425 3.576 7.73825 2.552C9.91425 1.496 12.3303 0.967998 14.9863 0.967998C17.6423 0.967998 20.0423 1.496 22.1863 2.552C24.3623 3.576 26.0583 4.984 27.2743 6.776C28.5223 8.568 29.1463 10.536 29.1463 12.68V23.672C29.1463 25.816 28.5223 27.784 27.2743 29.576C26.0263 31.368 24.3143 32.792 22.1383 33.848C19.9943 34.904 17.6103 35.432 14.9863 35.432ZM14.9863 30.392C17.5463 30.392 19.5783 29.768 21.0823 28.52C22.6183 27.272 23.3863 25.624 23.3863 23.576V12.776C23.3863 10.728 22.6183 9.096 21.0823 7.88C19.5783 6.632 17.5463 6.008 14.9863 6.008C12.4263 6.008 10.3783 6.632 8.84225 7.88C7.33825 9.096 6.58625 10.728 6.58625 12.776V23.576C6.58625 25.624 7.33825 27.272 8.84225 28.52C10.3783 29.768 12.4263 30.392 14.9863 30.392ZM37.0145 35C36.1825 35 35.4785 34.744 34.9025 34.232C34.3585 33.72 34.0865 33.08 34.0865 32.312V4.04C34.0865 3.304 34.3585 2.68 34.9025 2.168C35.4785 1.656 36.1825 1.4 37.0145 1.4H47.8625C50.6465 1.4 53.1105 1.928 55.2545 2.984C57.4305 4.04 59.1105 5.528 60.2945 7.448C61.4785 9.368 62.0705 11.576 62.0705 14.072V22.184C62.0705 24.68 61.4625 26.904 60.2465 28.856C59.0625 30.776 57.3825 32.28 55.2065 33.368C53.0625 34.456 50.6145 35 47.8625 35H37.0145ZM47.3825 30.008C50.2305 30.008 52.4225 29.336 53.9585 27.992C55.5265 26.648 56.3105 24.744 56.3105 22.28V14.024C56.3105 11.56 55.5425 9.672 54.0065 8.36C52.4705 7.048 50.2625 6.392 47.3825 6.392H39.8465V30.008H47.3825ZM80.4706 35.432C77.8466 35.432 75.4466 34.904 73.2706 33.848C71.1266 32.792 69.4306 31.368 68.1826 29.576C66.9346 27.784 66.3106 25.816 66.3106 23.672V12.68C66.3106 10.536 66.9186 8.568 68.1346 6.776C69.3826 4.984 71.0786 3.576 73.2226 2.552C75.3986 1.496 77.8146 0.967998 80.4706 0.967998C83.1266 0.967998 85.5266 1.496 87.6706 2.552C89.8466 3.576 91.5426 4.984 92.7586 6.776C94.0066 8.568 94.6306 10.536 94.6306 12.68V23.672C94.6306 25.816 94.0066 27.784 92.7586 29.576C91.5106 31.368 89.7986 32.792 87.6226 33.848C85.4786 34.904 83.0946 35.432 80.4706 35.432ZM80.4706 30.392C83.0306 30.392 85.0626 29.768 86.5666 28.52C88.1026 27.272 88.8706 25.624 88.8706 23.576V12.776C88.8706 10.728 88.1026 9.096 86.5666 7.88C85.0626 6.632 83.0306 6.008 80.4706 6.008C77.9106 6.008 75.8626 6.632 74.3266 7.88C72.8226 9.096 72.0706 10.728 72.0706 12.776V23.576C72.0706 25.624 72.8226 27.272 74.3266 28.52C75.8626 29.768 77.9106 30.392 80.4706 30.392ZM113.299 35.432C110.483 35.432 107.971 34.904 105.763 33.848C103.587 32.76 101.891 31.272 100.675 29.384C99.4589 27.464 98.8509 25.288 98.8509 22.856V13.4C98.8509 10.968 99.4429 8.824 100.627 6.968C101.843 5.08 103.523 3.608 105.667 2.552C107.843 1.496 110.307 0.967998 113.059 0.967998C115.811 0.967998 118.259 1.4 120.403 2.264C122.579 3.096 124.259 4.264 125.443 5.768C126.659 7.272 127.267 8.984 127.267 10.904C127.267 12.024 126.899 12.904 126.163 13.544C125.427 14.152 124.435 14.456 123.187 14.456C122.579 14.456 122.003 14.392 121.459 14.264C121.555 13.784 121.603 13.08 121.603 12.152C121.603 10.328 120.803 8.84 119.203 7.688C117.635 6.536 115.587 5.96 113.059 5.96C110.563 5.96 108.531 6.648 106.963 8.024C105.395 9.4 104.611 11.192 104.611 13.4V22.856C104.611 24.328 104.979 25.64 105.715 26.792C106.451 27.944 107.475 28.84 108.787 29.48C110.099 30.12 111.603 30.44 113.299 30.44C115.763 30.44 117.779 29.848 119.347 28.664C120.947 27.448 121.747 25.912 121.747 24.056V22.136H116.947C115.827 22.136 114.899 21.72 114.163 20.888C113.459 20.024 113.107 18.904 113.107 17.528H124.771C125.603 17.528 126.259 17.768 126.739 18.248C127.251 18.728 127.507 19.368 127.507 20.168V24.152C127.507 26.328 126.899 28.28 125.683 30.008C124.499 31.704 122.819 33.032 120.643 33.992C118.499 34.952 116.051 35.432 113.299 35.432ZM143.541 35.432C142.101 35.432 140.917 35.096 139.989 34.424C139.061 33.752 138.421 32.792 138.069 31.544L130.389 1.592C131.093 1.176 131.957 0.967998 132.981 0.967998C134.101 0.967998 135.013 1.224 135.717 1.736C136.453 2.248 136.933 2.984 137.157 3.944L141.621 23.672L140.709 27.08L141.093 27.224L148.005 2.888C148.197 2.28 148.517 1.816 148.965 1.496C149.445 1.144 149.989 0.967998 150.597 0.967998C151.237 0.967998 151.781 1.144 152.229 1.496C152.709 1.816 153.029 2.28 153.189 2.888L158.949 24.008L158.085 27.608L158.565 27.752L164.037 3.944C164.261 3.016 164.725 2.296 165.429 1.784C166.165 1.24 167.077 0.967998 168.165 0.967998C169.221 0.967998 170.101 1.176 170.805 1.592L163.125 31.544C162.805 32.792 162.181 33.752 161.253 34.424C160.325 35.096 159.125 35.432 157.653 35.432L150.021 7.976L149.685 8.072L150.405 10.712L143.541 35.432ZM189.423 35.432C186.767 35.432 184.383 34.904 182.271 33.848C180.159 32.76 178.495 31.272 177.279 29.384C176.095 27.496 175.503 25.368 175.503 23V5.384C175.503 3.944 175.983 2.856 176.943 2.12C177.935 1.352 179.375 0.967998 181.263 0.967998V23C181.263 25.24 181.999 27.032 183.471 28.376C184.975 29.688 186.959 30.344 189.423 30.344C191.855 30.344 193.807 29.672 195.279 28.328C196.783 26.984 197.535 25.208 197.535 23V5.384C197.535 3.944 198.015 2.856 198.975 2.12C199.967 1.352 201.407 0.967998 203.295 0.967998V23C203.295 25.368 202.687 27.496 201.471 29.384C200.287 31.272 198.639 32.76 196.527 33.848C194.415 34.904 192.047 35.432 189.423 35.432Z" fill="#88F346" fill-opacity="0.99"/>
</svg>
